<svg width="512" height="512" viewBox="0 0 512 512" fill="none" xmlns="http://www.w3.org/2000/svg">
  <defs>
    <linearGradient id="bg" x1="64" y1="48" x2="448" y2="464" gradientUnits="userSpaceOnUse">
      <stop stop-color="#0B1220"/>
      <stop offset="1" stop-color="#111827"/>
    </linearGradient>
    <linearGradient id="signal" x1="132" y1="146" x2="392" y2="366" gradientUnits="userSpaceOnUse">
      <stop stop-color="#7DD3FC"/>
      <stop offset="0.5" stop-color="#22D3EE"/>
      <stop offset="1" stop-color="#34D399"/>
    </linearGradient>
    <linearGradient id="accent" x1="156" y1="120" x2="356" y2="392" gradientUnits="userSpaceOnUse">
      <stop stop-color="#F8FAFC"/>
      <stop offset="1" stop-color="#CBD5E1"/>
    </linearGradient>
    <filter id="shadow" x="54" y="40" width="404" height="432" filterUnits="userSpaceOnUse" color-interpolation-filters="sRGB">
      <feDropShadow dx="0" dy="16" stdDeviation="20" flood-color="#020617" flood-opacity="0.28"/>
    </filter>
  </defs>

  <rect width="512" height="512" rx="128" fill="url(#bg)"/>
  <g opacity="0.14">
    <circle cx="392" cy="112" r="88" fill="#38BDF8"/>
    <circle cx="128" cy="392" r="104" fill="#34D399"/>
  </g>

  <g filter="url(#shadow)">
    <rect x="96" y="88" width="320" height="336" rx="44" fill="#020617" fill-opacity="0.72" stroke="#334155" stroke-width="2"/>
    <rect x="120" y="118" width="272" height="198" rx="24" fill="#0F172A" stroke="#1E293B" stroke-width="2"/>
    <circle cx="148" cy="146" r="8" fill="#FB7185"/>
    <circle cx="174" cy="146" r="8" fill="#FBBF24"/>
    <circle cx="200" cy="146" r="8" fill="#34D399"/>

    <path d="M165 221L220 176" stroke="url(#signal)" stroke-width="22" stroke-linecap="round" stroke-linejoin="round"/>
    <path d="M347 221L292 176" stroke="url(#signal)" stroke-width="22" stroke-linecap="round" stroke-linejoin="round"/>
    <path d="M225 264H287" stroke="url(#accent)" stroke-width="20" stroke-linecap="round"/>
    <path d="M175 356H337" stroke="#0EA5E9" stroke-width="18" stroke-linecap="round" stroke-opacity="0.85"/>
    <path d="M175 388H294" stroke="#34D399" stroke-width="18" stroke-linecap="round" stroke-opacity="0.85"/>
  </g>
</svg>
